<svg width="100" height="100" viewBox="0 0 100 100" fill="none" xmlns="http://www.w3.org/2000/svg">
<g clip-path="url(#clip0_937:676)">
<path d="M63.1918 64.534C78.4796 64.534 90.9178 52.0966 90.9178 36.808C90.9178 21.5202 78.4796 9.08203 63.1918 9.08203C47.904 9.08203 35.4658 21.5202 35.4658 36.808C35.4658 52.0966 47.904 64.534 63.1918 64.534ZM63.1918 12.9883C76.3258 12.9883 87.0115 23.674 87.0115 36.808C87.0115 49.942 76.3258 60.6277 63.1918 60.6277C50.0578 60.6277 39.3721 49.9428 39.3721 36.808C39.3721 23.674 50.0578 12.9883 63.1918 12.9883Z" fill="#7A7A9D" stroke="white" stroke-width="1.75"/>
<path d="M62.9021 74.1959C83.358 74.1959 100 57.5539 100 37.0979C100 16.642 83.358 0 62.9021 0C42.4461 0 25.8041 16.642 25.8041 37.0979C25.8041 44.8616 28.2028 52.0737 32.296 58.0376L26.2276 64.106L25.4013 63.2797C24.6384 62.5168 23.4016 62.5168 22.6387 63.2797L2.91672 83.0017C1.03607 84.8824 0 87.3833 0 90.0429C0 92.7025 1.03607 95.2026 2.91672 97.0833C4.79736 98.9639 7.29752 100 9.95712 100C12.6167 100 15.1176 98.9639 16.9983 97.0833L36.721 77.3613C37.0872 76.9951 37.2925 76.4984 37.2925 75.9804C37.2925 75.4623 37.0872 74.9649 36.721 74.5987L35.894 73.7724L41.9624 67.704C47.9263 71.7972 55.1392 74.1959 62.9021 74.1959ZM62.9021 3.90625C81.2042 3.90625 96.0938 18.7958 96.0938 37.0979C96.0938 55.4001 81.2042 70.2896 62.9021 70.2896C44.6007 70.2896 29.7104 55.4001 29.7104 37.0979C29.7104 18.7958 44.6007 3.90625 62.9021 3.90625ZM14.2365 94.3214C13.0928 95.4643 11.5738 96.0938 9.95712 96.0938C8.34045 96.0938 6.82144 95.4643 5.67856 94.3214C3.31879 91.9624 3.31879 88.1233 5.67856 85.7635L24.0196 67.4225L24.8459 68.248C24.8459 68.2487 24.8466 68.2487 24.8466 68.2495L32.5775 75.9804L14.2365 94.3214ZM33.1322 71.0098L28.9902 66.8678L34.6939 61.1641C35.9642 62.6503 37.3497 64.0358 38.8359 65.3061L33.1322 71.0098Z" fill="#7A7A9D" stroke="white" stroke-width="1.75"/>
<path d="M56.5059 31.6732C57.5847 31.6732 58.459 30.7988 58.459 29.72C58.459 28.3757 59.0343 27.0902 60.036 26.193C61.0522 25.2828 62.3668 24.8655 63.7393 25.0173C65.9076 25.2568 67.6555 27.0047 67.8951 29.173C68.1056 31.0849 67.1649 32.9229 65.4971 33.8552C62.8711 35.3238 61.2392 38.0399 61.2392 40.9429V43.7299C61.2392 44.8087 62.1135 45.683 63.1923 45.683C64.2703 45.683 65.1454 44.8087 65.1454 43.7299V40.9429C65.1454 39.4529 66.0106 38.0437 67.4037 37.2648C70.4448 35.5642 72.1614 32.2194 71.7777 28.7442C71.339 24.7731 68.1384 21.5734 64.1681 21.1347C61.7145 20.8638 59.257 21.6466 57.4298 23.2831C55.6018 24.9204 54.5527 27.2664 54.5527 29.72C54.5527 30.7988 55.4271 31.6732 56.5059 31.6732Z" fill="#7A7A9D" stroke="white" stroke-width="1.75"/>
<path d="M63.1914 49.3945C62.6779 49.3945 62.1744 49.6036 61.8112 49.9667C61.4481 50.3299 61.2383 50.8342 61.2383 51.3477C61.2383 51.8634 61.4473 52.3654 61.8112 52.7286C62.1744 53.0933 62.6779 53.3008 63.1914 53.3008C63.7056 53.3008 64.2092 53.0933 64.5723 52.7286C64.9355 52.3654 65.1445 51.8611 65.1445 51.3477C65.1445 50.8342 64.9362 50.3299 64.5723 49.9667C64.2092 49.6036 63.7056 49.3945 63.1914 49.3945Z" fill="#7A7A9D"/>
</g>
<defs>
<clipPath id="clip0_937:676">
<rect width="100" height="100" fill="white"/>
</clipPath>
</defs>
</svg>
